<svg width="71" height="71" viewBox="0 0 71 71" fill="none" xmlns="http://www.w3.org/2000/svg">
<ellipse cx="35.3519" cy="35.3519" rx="35.3519" ry="35.3519" fill="#E85C31"/>
<path d="M55.1056 55.9531H16.1084C15.8557 55.9531 15.6133 55.8395 15.4522 55.6428C15.2911 55.4461 15.2267 55.1884 15.2759 54.9391L16.4373 49.1353C16.8273 47.1821 18.1634 45.5645 20.0047 44.8083L26.9784 41.9496C27.3091 41.8174 27.6872 41.9005 27.9262 42.1616C30.0626 44.4946 32.7907 45.7798 35.607 45.7798C38.4233 45.7798 41.1514 44.4946 43.2861 42.1616C43.5268 41.9005 43.9032 41.8157 44.2339 41.9496L51.2076 44.8083C53.0506 45.5645 54.385 47.1804 54.775 49.1353L55.9364 54.9391C55.9856 55.1884 55.9212 55.4461 55.7601 55.6428C55.599 55.8395 55.3583 55.9531 55.1056 55.9531ZM17.1427 54.2575H54.0714L53.1151 49.4676C52.8353 48.0722 51.8824 46.9176 50.5667 46.3767L44.1271 43.7367C41.7279 46.1529 38.7234 47.4754 35.607 47.4754C32.4906 47.4754 29.4861 46.1529 27.0886 43.7384L20.649 46.3784C19.3333 46.9176 18.3804 48.0739 18.1006 49.4693L17.1427 54.2575Z" fill="white"/>
<path d="M33.0638 32.2156H31.3683C30.9003 32.2156 30.5205 31.8358 30.5205 31.3678C30.5205 30.8998 30.9003 30.52 31.3683 30.52H33.0638C33.5318 30.52 33.9116 30.8998 33.9116 31.3678C33.9116 31.8358 33.5318 32.2156 33.0638 32.2156Z" fill="white"/>
<path d="M39.8463 32.2156H38.1507C37.6828 32.2156 37.303 31.8358 37.303 31.3678C37.303 30.8998 37.6828 30.52 38.1507 30.52H39.8463C40.3142 30.52 40.694 30.8998 40.694 31.3678C40.694 31.8358 40.3142 32.2156 39.8463 32.2156Z" fill="white"/>
<path d="M35.6066 44.0835C31.4288 44.0835 27.7172 40.7093 26.176 35.6024C24.7789 35.5176 23.7378 33.7254 23.7378 31.3669C23.7378 29.4459 24.4279 27.9013 25.4401 27.3485C25.4351 27.2756 25.4334 27.201 25.4334 27.1281C25.4334 26.4211 25.5114 25.7005 25.6639 24.9833C25.764 24.5238 26.2218 24.2304 26.6711 24.3322C27.1289 24.4305 27.4205 24.8798 27.3222 25.3376C27.1933 25.9378 27.1289 26.5398 27.1289 27.1281C27.1289 27.3197 27.1526 27.5045 27.173 27.691L27.1967 27.903C27.2238 28.1556 27.134 28.4082 26.9542 28.5897C26.7745 28.7694 26.5202 28.8576 26.2693 28.8338C26.2608 28.8338 26.2523 28.8321 26.2438 28.8304C26.0048 28.922 25.4334 29.8121 25.4334 31.3669C25.4334 33.0082 26.0709 33.9103 26.2811 33.9103C26.51 33.7678 26.8169 33.7237 27.0729 33.8255C27.3222 33.9272 27.5341 34.1239 27.6019 34.3884C28.7888 39.1732 32.0052 42.3879 35.6066 42.3879C39.2079 42.3879 42.4243 39.1732 43.6129 34.3884C43.679 34.1256 43.8655 33.9103 44.1164 33.8068C44.3657 33.7051 44.6522 33.7305 44.8828 33.8729C45.2134 33.9136 45.7798 33.0048 45.7798 31.3669C45.7798 29.8121 45.2084 28.922 44.9676 28.8304C44.9591 28.8321 44.9506 28.8321 44.9422 28.8338C44.6929 28.8576 44.4369 28.7694 44.2572 28.588C44.0791 28.4082 43.9893 28.1556 44.0147 27.9013L44.0384 27.6893C44.0605 27.5045 44.0842 27.3197 44.0842 27.1281C44.0842 26.5398 44.0198 25.9378 43.8909 25.3376C43.7926 24.8798 44.0842 24.4305 44.5437 24.3322C44.9947 24.2304 45.4508 24.5255 45.5509 24.9833C45.7018 25.7005 45.7798 26.4211 45.7798 27.1281C45.7798 27.218 45.7764 27.3078 45.7713 27.3977C46.8157 27.9742 47.4753 29.4917 47.4753 31.3669C47.4753 33.7254 46.4342 35.5176 45.0371 35.6024C43.4959 40.7093 39.7843 44.0835 35.6066 44.0835Z" fill="white"/>
<path d="M35.6063 28.8239C29.816 28.8239 26.6895 27.0911 25.7722 25.6075C25.5263 25.2091 25.6484 24.6868 26.0469 24.441C26.4453 24.1951 26.9675 24.3155 27.2134 24.7157C27.8136 25.6855 30.5434 27.1284 35.6063 27.1284C40.6691 27.1284 43.3989 25.6855 43.9992 24.7157C44.245 24.3172 44.7672 24.1951 45.1657 24.441C45.5641 24.6868 45.6879 25.2108 45.4404 25.6075C44.5231 27.0911 41.3965 28.8239 35.6063 28.8239Z" fill="white"/>
<path d="M44.932 25.4335H26.2811C24.8789 25.4335 23.7378 24.2924 23.7378 22.8902V21.1946C23.7378 20.7267 24.1176 20.3469 24.5856 20.3469C25.5046 20.3469 26.9305 19.3872 28.4395 18.3682C30.6013 16.9117 33.0514 15.2603 35.6066 15.2603C38.1617 15.2603 40.6118 16.9117 42.7736 18.3682C44.2826 19.3872 45.7085 20.3469 46.6275 20.3469C47.0955 20.3469 47.4753 20.7267 47.4753 21.1946V22.8902C47.4753 24.2924 46.3342 25.4335 44.932 25.4335ZM25.4334 21.9305V22.8902C25.4334 23.3581 25.8149 23.7379 26.2811 23.7379H44.932C45.3983 23.7379 45.7798 23.3581 45.7798 22.8902V21.9305C44.5793 21.6304 43.2822 20.7572 41.8258 19.7755C39.8657 18.4529 37.6429 16.9558 35.6066 16.9558C33.5702 16.9558 31.3474 18.4529 29.3873 19.7755C27.9309 20.7572 26.6338 21.6304 25.4334 21.9305Z" fill="white"/>
<path d="M35.6064 22.0418C34.6705 22.0418 33.9109 21.2805 33.9109 20.3463V19.4985C33.9109 19.0306 34.2907 18.6508 34.7587 18.6508H36.4542C36.9222 18.6508 37.302 19.0306 37.302 19.4985V20.3463C37.302 21.2805 36.5424 22.0418 35.6064 22.0418Z" fill="white"/>
<path d="M44.9329 52.5627C44.7159 52.5627 44.4989 52.4796 44.3327 52.3151L42.6372 50.6196C42.4795 50.4602 42.3896 50.2449 42.3896 50.0194V48.3238C42.3896 47.8559 42.7694 47.4761 43.2374 47.4761H46.6285C47.0964 47.4761 47.4762 47.8559 47.4762 48.3238V50.0194C47.4762 50.2449 47.3864 50.4602 47.2287 50.6196L45.5332 52.3151C45.367 52.4796 45.15 52.5627 44.9329 52.5627ZM44.0852 49.6684L44.9329 50.5162L45.7807 49.6684V49.1716H44.0852V49.6684Z" fill="white"/>
<path d="M33.0641 55.953C32.5962 55.953 32.2164 55.5732 32.2164 55.1052V46.6276C32.2164 46.1596 32.5962 45.7798 33.0641 45.7798C33.5321 45.7798 33.9119 46.1596 33.9119 46.6276V55.1052C33.9119 55.5732 33.5321 55.953 33.0641 55.953Z" fill="white"/>
<path d="M38.1507 55.953C37.6828 55.953 37.303 55.5732 37.303 55.1052V46.6276C37.303 46.1596 37.6828 45.7798 38.1507 45.7798C38.6187 45.7798 38.9985 46.1596 38.9985 46.6276V55.1052C38.9985 55.5732 38.6187 55.953 38.1507 55.953Z" fill="white"/>
</svg>
